<svg width="219" height="94" viewBox="0 0 219 94" fill="none" xmlns="http://www.w3.org/2000/svg">
<g clip-path="url(#clip0_92_416)">
<path d="M100.073 42.1206C97.5475 42.1206 95.8642 43.8366 95.8642 46.5198V57.9999H99.4841V51.3582H106.385C107.733 51.3582 108.617 50.4342 108.617 48.983V48.191H99.4841V47.399C99.4841 46.2558 100.157 45.5518 101.209 45.5518H109.248C110.594 45.5518 111.479 44.6278 111.479 43.2206V42.1206H100.073ZM113.625 42.1206V57.9999H117.244V42.1206H113.625ZM88.9622 42.1206H77.557V43.2206C77.557 44.6278 78.4403 45.5518 79.7875 45.5518H87.8262C88.8787 45.5518 89.5516 46.2558 89.5516 47.399V48.191H80.5874C78.0614 48.191 76.3782 49.9062 76.3782 52.5895V53.6455C76.3782 56.2847 78.0622 57.9999 80.5874 57.9999H93.1699V46.5198C93.1699 43.8366 91.4874 42.1206 88.9622 42.1206ZM81.47 54.5687C80.5445 54.5687 79.9965 53.9535 79.9965 52.9855V52.8535C79.9965 51.9295 80.5445 51.3582 81.47 51.3582H89.5508V54.5687H81.47ZM164.086 54.5687C163.202 54.5687 162.613 53.9535 162.613 52.9855V52.8535C162.613 51.9295 163.202 51.3582 164.087 51.3582H172.209V54.5687H164.086ZM171.619 42.1206H160.172V43.2206C160.172 44.6278 161.056 45.5518 162.403 45.5518H170.441C171.494 45.5518 172.209 46.2558 172.209 47.399V48.191H163.202C160.677 48.191 159.036 49.9062 159.036 52.5895V53.6455C159.036 56.2847 160.677 57.9999 163.202 57.9999H175.786V46.5198C175.786 43.8366 174.145 42.1206 171.619 42.1206ZM133.11 48.9202L124.82 47.9349C123.936 47.8453 123.767 47.6222 123.767 46.8168V46.5929C123.767 45.9219 124.188 45.5196 124.778 45.5196H133.868C135.215 45.5196 136.099 44.5799 136.099 43.1491V42.1206H123.767C121.58 42.1206 120.148 43.597 120.148 45.9235V47.623C120.148 49.7247 121.158 50.8876 123.515 51.2011L131.848 52.1848C132.732 52.2744 132.901 52.5431 132.901 53.3037V53.5268C132.901 54.1978 132.48 54.6001 131.848 54.6001H122.379C121.032 54.6001 120.148 55.5398 120.148 56.9714V57.9999H132.901C135.088 57.9999 136.478 56.5235 136.478 54.1978V52.5431C136.478 50.351 135.509 49.2329 133.11 48.9202Z" fill="#F5117A"/>
<path d="M152.991 42.1206V48.257H143.086V42.1206H139.424V57.9999H143.086V51.6403H152.991V57.9999H156.654V42.1206H152.991ZM64.0761 57.9999H62.362V46.552C62.362 45.0002 61.7005 44.308 60.2149 44.308H52.8829C51.3981 44.308 50.7358 44.9995 50.7358 46.552V47.4454C50.7358 48.998 51.3973 49.6902 52.8829 49.6902H54.3924V51.4816H52.8829C50.4291 51.4816 49.0217 50.0107 49.0217 47.4454V46.552C49.0217 43.9875 50.4291 42.5166 52.8829 42.5166H60.2149C62.6687 42.5166 64.0768 43.9875 64.0768 46.552L64.0761 57.9999Z" fill="#F5117A"/>
<path d="M67.1944 58H65.4804V46.5521C65.4804 45.4026 65.2323 43.7739 64.0527 42.5419C62.874 41.3083 61.3148 41.049 60.2149 41.049H52.8828C51.783 41.049 50.2253 41.3083 49.045 42.5419C47.8662 43.7739 47.6181 45.4026 47.6181 46.5521V47.4455C47.6181 48.595 47.8662 50.2246 49.045 51.4566C50.2253 52.6894 51.783 52.9494 52.8828 52.9494H54.3924V54.7409H52.8828C50.8417 54.7409 49.0954 54.0431 47.8331 52.7239C46.5701 51.4055 45.9033 49.5803 45.9033 47.4455V46.5521C45.9033 44.4181 46.5701 42.5921 47.8331 41.2737C49.0954 39.9545 50.8417 39.2576 52.8828 39.2576H60.2149C62.2575 39.2576 64.0039 39.9545 65.2654 41.2745C66.5276 42.5929 67.1944 44.4174 67.1944 46.5521V58Z" fill="#F5117A"/>
<path d="M54.3931 58H52.882C50.8688 58 47.9767 57.4854 45.6274 55.0292C43.2781 52.5731 42.7856 49.5504 42.7856 47.4471V46.5521C42.7856 44.4488 43.2781 41.4261 45.6274 38.97C47.9767 36.5139 50.8695 36 52.882 36H60.2141C62.2274 36 65.1202 36.5146 67.4688 38.97C69.8188 41.4261 70.3112 44.4488 70.3112 46.5529V58H68.5972V46.5521C68.5972 44.7866 68.1912 42.2582 66.2576 40.2366C64.3241 38.2157 61.9034 37.7914 60.2149 37.7914H52.8828C51.1935 37.7914 48.7743 38.2157 46.84 40.2374C44.9057 42.2598 44.4997 44.7874 44.4997 46.5521V47.4455C44.4997 49.211 44.9057 51.7394 46.8407 53.7619C48.7743 55.7827 51.1935 56.207 52.8828 56.207H54.3923L54.3931 58Z" fill="#F5117A"/>
<path d="M54.1382 49.6912H62.6626V51.4826H54.1382V49.6912Z" fill="url(#paint0_linear_92_416)"/>
<path d="M54.1382 52.9495H62.6626V54.7409H54.1382V52.9495Z" fill="url(#paint1_linear_92_416)"/>
<path d="M54.1382 56.2078H62.6626V57.9992H54.1382V56.2078Z" fill="url(#paint2_linear_92_416)"/>
</g>
<defs>
<linearGradient id="paint0_linear_92_416" x1="54.1382" y1="50.5869" x2="62.6626" y2="50.5869" gradientUnits="userSpaceOnUse">
<stop offset="0.1" stop-color="#F5117A"/>
<stop offset="1" stop-color="#F5117A" stop-opacity="0"/>
</linearGradient>
<linearGradient id="paint1_linear_92_416" x1="54.1382" y1="53.8452" x2="62.6626" y2="53.8452" gradientUnits="userSpaceOnUse">
<stop offset="0.1" stop-color="#F5117A"/>
<stop offset="1" stop-color="#F5117A" stop-opacity="0"/>
</linearGradient>
<linearGradient id="paint2_linear_92_416" x1="54.1382" y1="57.1043" x2="62.6626" y2="57.1043" gradientUnits="userSpaceOnUse">
<stop offset="0.1" stop-color="#F5117A"/>
<stop offset="1" stop-color="#F5117A" stop-opacity="0"/>
</linearGradient>
<clipPath id="clip0_92_416">
<rect width="133" height="28" fill="white" transform="translate(43 33)"/>
</clipPath>
</defs>
</svg>
