<svg width="219" height="94" viewBox="0 0 219 94" fill="none" xmlns="http://www.w3.org/2000/svg">
<g clip-path="url(#clip0_92_408)">
<path d="M104.748 32.9485C104.748 32.9632 104.719 33.037 104.683 33.1167C104.648 33.1964 104.615 33.2672 104.615 33.2761C104.604 33.3115 104.55 33.4354 104.335 33.9106C104.282 34.0228 104.238 34.129 104.235 34.1467C104.232 34.1615 104.208 34.2235 104.182 34.2795C104.155 34.3356 104.084 34.495 104.025 34.6337C103.963 34.7724 103.878 34.9613 103.833 35.0528C103.789 35.1472 103.768 35.2122 103.786 35.2033C103.804 35.1915 103.795 35.2122 103.768 35.2446C103.739 35.2771 103.715 35.3243 103.715 35.3509C103.715 35.3775 103.703 35.407 103.686 35.4158C103.671 35.4247 103.656 35.4601 103.656 35.4926C103.656 35.5221 103.644 35.5486 103.627 35.5486C103.612 35.5486 103.6 35.5575 103.603 35.5693C103.609 35.5988 103.585 35.6549 103.447 35.9559C103.382 36.0917 103.332 36.2068 103.332 36.2157C103.332 36.2245 103.305 36.2924 103.27 36.3691C103.175 36.5816 103.11 36.7292 103.039 36.8827C103.007 36.9594 102.977 37.0302 102.977 37.0391C102.977 37.045 102.945 37.1247 102.904 37.2132C102.862 37.3018 102.83 37.3903 102.83 37.4051C102.83 37.4228 102.818 37.4375 102.806 37.4375C102.791 37.4375 102.78 37.4552 102.78 37.4729C102.777 37.529 102.641 37.833 102.617 37.8448C102.603 37.8507 102.594 37.8743 102.594 37.895C102.594 37.9186 102.555 38.0189 102.508 38.1222C102.461 38.2255 102.381 38.4085 102.328 38.5295C102.198 38.8335 102.169 38.8985 102.065 39.1287C102.015 39.2408 101.974 39.3382 101.974 39.3441C101.974 39.353 101.941 39.4297 101.903 39.5124C101.865 39.5979 101.791 39.7662 101.738 39.8872C101.685 40.0082 101.629 40.1262 101.614 40.1439C101.596 40.1646 101.59 40.1823 101.599 40.1823C101.614 40.1823 101.499 40.4538 101.369 40.7283C101.345 40.7755 101.292 40.9025 101.248 41.0087C101.207 41.115 101.148 41.2537 101.118 41.3186C101.089 41.3835 101.018 41.54 100.962 41.6639C100.906 41.7879 100.867 41.8971 100.876 41.9059C100.885 41.9148 100.876 41.9236 100.858 41.9236C100.838 41.9236 100.823 41.9472 100.823 41.9768C100.823 42.0063 100.814 42.0417 100.802 42.0535C100.787 42.0653 100.779 42.086 100.776 42.0948C100.776 42.1066 100.725 42.2188 100.666 42.3457C100.607 42.4726 100.557 42.5936 100.557 42.6113C100.557 42.632 100.537 42.6733 100.513 42.7028C100.489 42.7353 100.469 42.7854 100.469 42.815C100.469 42.8445 100.454 42.8681 100.436 42.8681C100.421 42.8681 100.413 42.8799 100.421 42.8917C100.43 42.9065 100.41 42.9596 100.377 43.0097C100.348 43.0629 100.321 43.1189 100.321 43.1337C100.321 43.1485 100.283 43.2429 100.236 43.3462C100.188 43.4495 100.129 43.5794 100.106 43.6354C99.8548 44.208 99.7604 44.4323 99.7604 44.4589C99.7604 44.4736 99.7456 44.4913 99.7279 44.4972C99.7102 44.5032 99.6925 44.5356 99.6896 44.5651C99.6866 44.5976 99.6423 44.7157 99.5892 44.8278C99.5361 44.94 99.4948 45.0344 99.4948 45.0403C99.4948 45.0462 99.4475 45.1554 99.3885 45.2794C99.3295 45.4063 99.2793 45.5214 99.2764 45.5391C99.2705 45.5538 99.235 45.6424 99.1967 45.7309C99.1554 45.8195 99.0845 45.9847 99.0373 46.0999C98.9901 46.212 98.9399 46.3094 98.9281 46.3153C98.9133 46.3212 98.9045 46.3478 98.9045 46.3773C98.9045 46.4038 98.8838 46.457 98.8573 46.4924C98.8336 46.5278 98.8189 46.5573 98.8277 46.5573C98.8366 46.5573 98.7894 46.6724 98.7274 46.8111C98.6625 46.9499 98.6093 47.0797 98.6093 47.0974C98.6093 47.1151 98.5887 47.1505 98.5651 47.1771C98.5415 47.2037 98.5179 47.2509 98.5119 47.2863C98.509 47.3217 98.4883 47.369 98.4677 47.3896C98.45 47.4132 98.4411 47.4427 98.4529 47.4516C98.4618 47.4634 98.4588 47.4722 98.4441 47.4722C98.4293 47.4722 98.4146 47.5018 98.4116 47.5342C98.4086 47.5696 98.385 47.6198 98.3614 47.6464C98.3349 47.6759 98.3142 47.7113 98.3142 47.729C98.3142 47.7467 98.2788 47.8382 98.2375 47.9327C98.1076 48.2219 98.0515 48.3577 98.0456 48.3813C98.0456 48.3931 98.025 48.4344 98.0014 48.4757C97.9807 48.517 97.9217 48.6499 97.8685 48.7709C97.8184 48.8919 97.7564 49.0394 97.7298 49.0955C97.7033 49.1516 97.6856 49.2077 97.6885 49.2195C97.6915 49.2342 97.6797 49.2431 97.6649 49.2431C97.6501 49.2431 97.6383 49.2519 97.6413 49.2667C97.6472 49.2933 97.6059 49.3936 97.414 49.8186C97.2694 50.1433 97.2222 50.2584 97.2222 50.2908C97.2222 50.3115 97.2015 50.344 97.1779 50.3646C97.1543 50.3853 97.1336 50.4177 97.1336 50.4384C97.1336 50.4591 97.0894 50.5742 97.0333 50.6952C96.9477 50.8841 96.9005 50.9933 96.8828 51.0434C96.868 51.0907 96.7441 51.3622 96.7205 51.4035C96.7057 51.433 96.6909 51.4773 96.6909 51.5009C96.6909 51.5245 96.6791 51.5452 96.6614 51.5452C96.6467 51.5452 96.6349 51.554 96.6378 51.5658C96.6408 51.5806 96.6231 51.6278 96.6024 51.678C96.5817 51.7252 96.5611 51.7724 96.5581 51.7813C96.5493 51.8078 96.505 51.9111 96.2571 52.4749C96.1213 52.7818 96.0121 53.0504 96.0121 53.071C96.0121 53.0917 95.9974 53.1094 95.9797 53.1094C95.9649 53.1094 95.959 53.1212 95.9679 53.1389C95.9767 53.1537 95.9708 53.1684 95.956 53.1684C95.9383 53.1684 95.9236 53.1891 95.9236 53.2157C95.9236 53.2422 95.8823 53.3514 95.8321 53.4577C95.7819 53.5669 95.7081 53.7321 95.6698 53.8266C95.6284 53.921 95.5576 54.0834 95.5104 54.1896C95.4602 54.2929 95.4218 54.3874 95.4218 54.3933C95.4218 54.4051 95.3363 54.6058 95.23 54.836C95.2093 54.8832 95.1651 54.9835 95.1326 55.0573C95.1001 55.1311 95.0146 55.3318 94.9378 55.503C94.864 55.6771 94.8021 55.8335 94.8021 55.8512C94.8021 55.869 94.7902 55.8837 94.7725 55.8837C94.7578 55.8837 94.743 55.9014 94.743 55.925C94.743 55.9634 94.6988 56.0755 94.5394 56.4297C94.4951 56.5271 94.4213 56.6983 94.3741 56.8134C94.3269 56.9255 94.2767 57.0288 94.2619 57.0377C94.2472 57.0466 94.2383 57.0613 94.2413 57.0672C94.2501 57.0879 93.8871 57.9467 93.651 58.4662C93.5713 58.6403 93.5093 58.782 93.1935 59.5139C93.0342 59.8799 92.8836 60.2252 92.86 60.2813C92.8335 60.3374 92.8099 60.4052 92.8069 60.4288C92.801 60.4525 92.7833 60.4761 92.7685 60.482C92.7508 60.4879 92.7361 60.5115 92.7361 60.5351C92.7361 60.5617 92.7007 60.6561 92.6593 60.7476C92.618 60.8391 92.5679 60.9483 92.5501 60.9896C92.5324 61.0309 92.5118 61.0722 92.5059 61.0841C92.5 61.0988 94.6456 61.1077 97.2724 61.1077L102.048 61.1047L102.101 60.9926C102.127 60.9335 102.151 60.8716 102.151 60.8597C102.151 60.845 102.169 60.7948 102.192 60.7446C102.213 60.6915 102.248 60.603 102.269 60.5469C102.29 60.4908 102.334 60.3846 102.366 60.3108C102.399 60.24 102.425 60.1662 102.431 60.1485C102.44 60.1101 102.473 60.0216 102.523 59.9065C102.546 59.8563 102.564 59.8091 102.564 59.8002C102.564 59.7913 102.579 59.7471 102.6 59.6999C102.617 59.6556 102.635 59.6113 102.638 59.6025C102.638 59.5936 102.688 59.4608 102.75 59.3073C102.809 59.1538 102.859 59.0181 102.859 59.0063C102.859 58.9915 102.886 58.9354 102.918 58.8794C102.951 58.8203 102.977 58.7584 102.977 58.7407C102.977 58.7229 103.039 58.5547 103.116 58.3658C103.19 58.1799 103.252 58.0087 103.252 57.988C103.252 57.9674 103.264 57.9497 103.278 57.9497C103.29 57.9497 103.302 57.9379 103.302 57.9202C103.302 57.8936 103.641 57.0023 103.934 56.2674C103.999 56.0962 104.052 55.9398 104.052 55.9221C104.049 55.9014 104.058 55.8837 104.072 55.8837C104.087 55.8837 104.099 55.8571 104.099 55.8247C104.099 55.7922 104.114 55.7657 104.128 55.7657C104.146 55.7657 104.158 55.742 104.158 55.7125C104.158 55.683 104.167 55.6476 104.179 55.6358C104.19 55.6269 104.202 55.5886 104.208 55.5532C104.214 55.5177 104.232 55.4794 104.249 55.4676C104.267 55.4587 104.279 55.438 104.279 55.4233C104.276 55.3879 104.332 55.2137 104.394 55.0721C104.424 55.0071 104.497 54.8212 104.556 54.6589C104.618 54.4966 104.683 54.3224 104.704 54.2752C104.725 54.225 104.784 54.0804 104.834 53.9505C104.884 53.8207 104.94 53.6731 104.958 53.6259C104.978 53.5757 104.996 53.5315 104.999 53.5226C105.002 53.5137 105.02 53.4695 105.037 53.4252C105.058 53.378 105.073 53.3278 105.073 53.313C105.073 53.2983 105.085 53.2629 105.102 53.2334C105.147 53.1507 105.336 52.6608 105.339 52.6224C105.339 52.6136 105.359 52.5634 105.386 52.5132C105.412 52.4601 105.445 52.3863 105.457 52.345C105.471 52.3037 105.551 52.0941 105.634 51.8846C105.716 51.6721 105.79 51.4861 105.793 51.4714C105.799 51.4537 105.817 51.4094 105.834 51.3681C105.852 51.3268 105.914 51.1674 105.973 51.0139C106.088 50.7099 106.109 50.6627 106.165 50.5269C106.189 50.4768 106.206 50.4207 106.212 50.4C106.221 50.3558 106.439 49.7891 106.504 49.6415C106.528 49.5913 106.587 49.4408 106.637 49.3021C106.687 49.1634 106.743 49.0247 106.758 48.9922C106.773 48.9597 106.817 48.8387 106.858 48.7266C106.9 48.6115 106.947 48.4934 106.962 48.461C107.021 48.3341 107.168 47.9268 107.168 47.8913C107.168 47.8736 107.183 47.8559 107.198 47.8559C107.216 47.8559 107.227 47.8382 107.227 47.8176C107.227 47.7851 107.393 47.3335 107.478 47.1328C107.499 47.0827 107.54 46.9764 107.567 46.8967C107.596 46.8141 107.632 46.7374 107.646 46.7196C107.658 46.7049 107.67 46.6724 107.67 46.6459C107.67 46.6222 107.688 46.5691 107.708 46.5278C107.729 46.4865 107.779 46.3684 107.815 46.2622C107.853 46.1559 107.903 46.029 107.921 45.9818C107.942 45.9316 107.995 45.7988 108.039 45.6867C108.083 45.5716 108.136 45.4387 108.157 45.3915C108.19 45.3177 108.231 45.1938 108.246 45.1407C108.249 45.1318 108.263 45.0934 108.281 45.0521C108.299 45.0108 108.387 44.7865 108.479 44.5504C108.57 44.3143 108.662 44.09 108.679 44.0486C108.697 44.0073 108.715 43.9601 108.718 43.9453C108.721 43.9276 108.733 43.8893 108.747 43.8568C108.803 43.724 109.054 43.0806 109.09 42.9714C109.113 42.9065 109.143 42.8445 109.155 42.8356C109.169 42.8268 109.178 42.8091 109.175 42.7972C109.169 42.7707 109.326 42.3575 109.352 42.328C109.373 42.3044 109.512 42.6438 109.494 42.6703C109.491 42.6733 109.509 42.7146 109.535 42.7648C109.562 42.812 109.609 42.9183 109.636 43.0009C109.665 43.0806 109.695 43.1603 109.707 43.178C109.718 43.1927 109.751 43.2724 109.777 43.3551C109.807 43.4347 109.851 43.5469 109.875 43.6C109.898 43.6532 109.922 43.7181 109.928 43.7476C109.934 43.7742 109.96 43.8509 109.99 43.9158C110.019 43.9808 110.043 44.0398 110.046 44.0486C110.046 44.0663 110.117 44.2434 110.164 44.3585C110.235 44.5238 110.592 45.4565 110.592 45.4771C110.592 45.486 110.619 45.5509 110.648 45.6217C110.731 45.8018 111.038 46.5927 111.052 46.6577C111.058 46.6872 111.079 46.7315 111.1 46.758C111.12 46.7816 111.132 46.8052 111.126 46.8052C111.114 46.8082 111.342 47.4132 111.445 47.6641C111.504 47.7999 111.563 47.9622 111.581 48.0242C111.593 48.0625 111.613 48.092 111.628 48.092C111.646 48.092 111.652 48.1009 111.646 48.1127C111.637 48.1275 111.646 48.1688 111.663 48.2101C111.678 48.2514 111.696 48.2957 111.702 48.3134C111.716 48.3695 111.864 48.7532 111.885 48.7856C111.896 48.8004 111.905 48.8269 111.908 48.8446C111.914 48.8742 112.103 49.3641 112.168 49.5235C112.236 49.6799 112.493 50.3499 112.496 50.3646C112.496 50.3794 112.525 50.4532 112.646 50.7483C112.679 50.8191 112.702 50.887 112.702 50.8959C112.705 50.9224 113.012 51.7075 113.042 51.7577C113.059 51.7872 113.071 51.8226 113.071 51.8374C113.071 51.8521 113.095 51.9141 113.121 51.9761C113.148 52.041 113.171 52.0971 113.174 52.1059C113.177 52.1148 113.189 52.1472 113.204 52.1797C113.216 52.2122 113.257 52.3243 113.298 52.4306C113.337 52.5368 113.384 52.6608 113.405 52.711C113.422 52.7582 113.437 52.8084 113.431 52.8202C113.428 52.8349 113.437 52.8438 113.455 52.8438C113.47 52.8438 113.484 52.8615 113.484 52.8851C113.484 52.9235 113.564 53.136 113.653 53.3426C113.676 53.3957 113.7 53.4577 113.703 53.4754C113.706 53.4931 113.732 53.561 113.762 53.6259C113.791 53.6908 113.818 53.7558 113.821 53.7735C113.824 53.7882 113.88 53.9417 113.948 54.1129C114.083 54.467 114.098 54.5054 114.095 54.5261C114.092 54.5349 114.113 54.5792 114.14 54.6294C114.193 54.7297 114.219 54.7976 114.308 55.0278C114.34 55.1163 114.385 55.2285 114.402 55.2787C114.423 55.3259 114.441 55.3731 114.444 55.382C114.446 55.3908 114.47 55.4469 114.497 55.5118C114.523 55.5738 114.547 55.6358 114.547 55.6446C114.547 55.6653 114.73 56.1405 114.789 56.2674C114.807 56.3087 114.827 56.3618 114.83 56.3884C114.836 56.412 114.86 56.474 114.886 56.5212C114.91 56.5684 114.931 56.6245 114.931 56.6452C114.931 56.6658 114.945 56.7042 114.96 56.7337C115.001 56.8075 115.255 57.4657 115.255 57.504C115.255 57.5217 115.267 57.5365 115.279 57.5365C115.291 57.5365 115.302 57.5601 115.305 57.5867C115.308 57.6162 115.364 57.7726 115.432 57.9349C115.5 58.0972 115.559 58.2419 115.562 58.2596C115.571 58.2861 115.615 58.4071 115.66 58.5104C115.668 58.5341 115.68 58.5665 115.686 58.5842C115.689 58.599 115.71 58.6521 115.73 58.7023C115.751 58.7495 115.769 58.7967 115.772 58.8056C115.775 58.8144 115.786 58.8469 115.801 58.8794C115.813 58.9118 115.884 59.0919 115.955 59.2778C116.025 59.4637 116.102 59.6644 116.126 59.7205C116.344 60.2636 116.471 60.5971 116.474 60.6266C116.474 60.6472 116.486 60.665 116.501 60.665C116.512 60.665 116.521 60.6738 116.518 60.6856C116.507 60.7269 116.651 61.0841 116.684 61.0959C116.701 61.1018 118.918 61.1047 121.607 61.1018L126.5 61.0929L126.456 61.0073C126.432 60.963 126.411 60.907 126.411 60.8863C126.411 60.8657 126.391 60.8332 126.367 60.8125C126.344 60.7919 126.329 60.7683 126.335 60.7565C126.344 60.7446 126.302 60.6443 126.246 60.5321C126.193 60.417 126.146 60.3167 126.146 60.3019C126.146 60.2901 126.107 60.1986 126.06 60.0953C125.892 59.7353 125.845 59.632 125.839 59.5966C125.836 59.5759 125.818 59.5316 125.8 59.4992C125.783 59.4667 125.674 59.2217 125.556 58.9532C125.44 58.6846 125.316 58.4071 125.284 58.3334C125.252 58.2596 125.133 57.994 125.024 57.7431C124.806 57.2413 124.735 57.082 124.608 56.8045C124.561 56.7012 124.523 56.6097 124.523 56.595C124.523 56.5832 124.475 56.4769 124.419 56.3589C124.363 56.2438 124.316 56.1434 124.316 56.1375C124.316 56.1316 124.289 56.0667 124.257 55.99C124.221 55.9162 124.198 55.8512 124.198 55.8483C124.204 55.8394 124.071 55.5591 124.018 55.4646C124.003 55.4351 123.991 55.3908 123.991 55.3672C123.991 55.3436 123.979 55.3229 123.962 55.3229C123.947 55.3229 123.932 55.3082 123.932 55.2934C123.932 55.2757 123.912 55.2137 123.882 55.1518C123.856 55.0927 123.832 55.0367 123.829 55.0278C123.811 54.9776 123.767 54.8714 123.693 54.7091C123.646 54.6058 123.608 54.5172 123.608 54.5113C123.608 54.5054 123.569 54.4169 123.522 54.3136C123.475 54.2103 123.369 53.9683 123.283 53.7735C123.197 53.5787 123.106 53.3662 123.076 53.3012C122.92 52.95 122.887 52.8762 122.825 52.7405C122.79 52.6578 122.743 52.5427 122.719 52.4808C122.699 52.4217 122.669 52.3716 122.654 52.3716C122.64 52.3716 122.634 52.3538 122.643 52.3302C122.651 52.3066 122.64 52.2712 122.616 52.2535C122.592 52.2328 122.575 52.2004 122.575 52.1827C122.575 52.162 122.474 51.9229 122.35 51.6455C122.226 51.371 122.099 51.0788 122.067 50.9992C122.035 50.9165 121.973 50.7719 121.925 50.6745C121.813 50.4413 121.766 50.3262 121.772 50.2967C121.775 50.2849 121.766 50.2761 121.748 50.2761C121.731 50.2761 121.722 50.2672 121.725 50.2525C121.728 50.2407 121.71 50.1846 121.683 50.1285C121.66 50.0724 121.61 49.9514 121.571 49.8629C121.533 49.7743 121.491 49.6887 121.477 49.671C121.465 49.6563 121.453 49.6209 121.453 49.5913C121.453 49.5618 121.441 49.5382 121.424 49.5382C121.409 49.5382 121.388 49.491 121.376 49.4349C121.368 49.3788 121.344 49.3316 121.326 49.3316C121.308 49.3316 121.303 49.3257 121.311 49.3139C121.32 49.3051 121.291 49.2195 121.244 49.1221C121.196 49.0276 121.158 48.9391 121.158 48.9302C121.158 48.9214 121.125 48.8446 121.087 48.762C121.046 48.6764 120.966 48.4964 120.904 48.3577C120.845 48.219 120.768 48.0478 120.736 47.974C120.668 47.8264 120.674 47.8412 120.644 47.729C120.63 47.6847 120.609 47.6493 120.594 47.6493C120.579 47.6493 120.571 47.6405 120.574 47.6257C120.577 47.6139 120.565 47.5755 120.544 47.5431C120.526 47.5077 120.518 47.4722 120.526 47.4663C120.532 47.4575 120.52 47.4339 120.494 47.4132C120.47 47.3926 120.45 47.3601 120.45 47.3365C120.45 47.3158 120.391 47.1712 120.317 47.0148C120.246 46.8613 120.187 46.7255 120.184 46.7196C120.181 46.7049 120.057 46.4127 120.007 46.3065C119.904 46.0821 119.848 45.9493 119.845 45.9375C119.845 45.9287 119.806 45.846 119.762 45.7486C119.718 45.6542 119.682 45.5657 119.682 45.5509C119.682 45.5361 119.659 45.483 119.629 45.4299C119.6 45.3768 119.544 45.2587 119.508 45.1702C119.434 44.999 119.352 44.8101 119.275 44.6389C119.248 44.5828 119.225 44.5297 119.225 44.5209C119.222 44.512 119.189 44.4412 119.154 44.3585C119.119 44.2788 119.071 44.1726 119.051 44.1224C119.03 44.0752 118.995 43.9926 118.974 43.9453C118.95 43.8952 118.933 43.8509 118.93 43.842C118.927 43.8332 118.897 43.7683 118.865 43.6945C118.685 43.299 118.59 43.0776 118.593 43.0599C118.593 43.0511 118.573 43.0068 118.552 42.9625C118.528 42.9183 118.481 42.8238 118.449 42.75C118.416 42.6762 118.36 42.5493 118.325 42.4696C118.215 42.2306 118.177 42.1302 118.183 42.1243C118.186 42.1184 118.168 42.0742 118.139 42.0269C118.1 41.9561 117.947 41.6255 117.926 41.5695C117.906 41.5104 117.841 41.357 117.796 41.2596C117.767 41.1946 117.72 41.0913 117.693 41.0294C117.607 40.8316 117.563 40.7313 117.469 40.5217C117.416 40.4066 117.371 40.2974 117.371 40.2768C117.371 40.2591 117.362 40.2413 117.351 40.2413C117.342 40.2413 117.315 40.1912 117.295 40.1292C117.271 40.0702 117.224 39.9521 117.188 39.8724C117.085 39.6452 116.994 39.4415 116.946 39.3264C116.899 39.2202 116.849 39.1051 116.719 38.8158C116.678 38.7214 116.642 38.6387 116.642 38.6299C116.642 38.621 116.604 38.5354 116.554 38.438C116.507 38.3407 116.468 38.261 116.468 38.2551C116.471 38.2403 116.397 38.0632 116.335 37.9245C116.297 37.8419 116.244 37.7238 116.214 37.6589C116.188 37.594 116.146 37.5025 116.123 37.4552C116.099 37.408 116.082 37.3519 116.082 37.3283C116.082 37.3077 116.067 37.29 116.049 37.29C116.034 37.29 116.028 37.2752 116.037 37.2604C116.046 37.2427 116.04 37.2309 116.02 37.2309C115.999 37.2309 115.99 37.2221 115.999 37.2132C116.014 37.1985 115.902 36.9269 115.769 36.6584C115.745 36.6111 115.727 36.561 115.727 36.5492C115.727 36.5344 115.683 36.4311 115.627 36.316C115.571 36.2038 115.533 36.1094 115.541 36.1094C115.55 36.1094 115.544 36.0917 115.527 36.071C115.512 36.0533 115.435 35.888 115.358 35.711C115.282 35.5309 115.193 35.3273 115.161 35.2535C115.128 35.1797 115.075 35.0617 115.043 34.9879C115.01 34.9141 114.954 34.7872 114.916 34.7075C114.88 34.6249 114.833 34.5097 114.81 34.4478C114.789 34.3887 114.762 34.3386 114.753 34.3386C114.742 34.3386 114.733 34.3209 114.733 34.3002C114.733 34.2825 114.691 34.1792 114.644 34.0729C114.597 33.9667 114.511 33.7749 114.455 33.645C114.399 33.5151 114.346 33.403 114.334 33.4C114.32 33.3941 114.311 33.3735 114.311 33.3528C114.311 33.3321 114.269 33.2259 114.222 33.1167L114.134 32.9219H109.441C106.788 32.9219 104.748 32.9337 104.748 32.9485Z" fill="#652BE3"/>
</g>
<defs>
<clipPath id="clip0_92_408">
<rect width="34" height="34" fill="white" transform="translate(92.5 30)"/>
</clipPath>
</defs>
</svg>
