<svg width="32" height="32" viewBox="0 0 32 32" fill="none" xmlns="http://www.w3.org/2000/svg">
<path fillRule="evenodd" clipRule="evenodd" d="M30.1707 2.61328C30.1322 2.41969 30.0372 2.24186 29.8977 2.1023C29.7581 1.96274 29.5803 1.86772 29.3867 1.82928C29.3867 1.82928 20.9507 0.0866185 13.1 7.93728C8.49468 12.5426 8.82935 17.456 8.82935 17.456C8.84397 17.7008 8.94786 17.9318 9.12135 18.1053L13.8947 22.8786C14.068 23.052 14.2987 23.156 14.544 23.1706C14.544 23.1706 19.4573 23.5053 24.0627 18.9C31.9133 11.0493 30.1707 2.61328 30.1707 2.61328ZM16.1053 17.3093L17.696 15.7173C17.7888 15.6245 17.8624 15.5143 17.9126 15.3931C17.9629 15.2718 17.9887 15.1419 17.9887 15.0106C17.9887 14.8794 17.9629 14.7494 17.9126 14.6282C17.8624 14.5069 17.7888 14.3968 17.696 14.304C17.6032 14.2112 17.493 14.1375 17.3718 14.0873C17.2505 14.0371 17.1206 14.0112 16.9893 14.0112C16.8581 14.0112 16.7281 14.0371 16.6069 14.0873C16.4856 14.1375 16.3755 14.2112 16.2827 14.304L14.6907 15.8946C14.5978 15.9875 14.5241 16.0978 14.4738 16.2191C14.4236 16.3405 14.3977 16.4706 14.3977 16.602C14.3977 16.7333 14.4236 16.8634 14.4738 16.9848C14.5241 17.1061 14.5978 17.2164 14.6907 17.3093C14.7836 17.4022 14.8938 17.4759 15.0152 17.5261C15.1366 17.5764 15.2666 17.6023 15.398 17.6023C15.5294 17.6023 15.6595 17.5764 15.7808 17.5261C15.9022 17.4759 16.0125 17.4022 16.1053 17.3093ZM24.0627 7.93728C23.7624 7.62838 23.4037 7.38225 23.0075 7.21319C22.6112 7.04413 22.1854 6.95551 21.7546 6.9525C21.3238 6.94948 20.8967 7.03212 20.4981 7.19561C20.0996 7.3591 19.7375 7.60018 19.4329 7.90485C19.1283 8.20951 18.8873 8.57167 18.724 8.97029C18.5606 9.3689 18.4781 9.79602 18.4812 10.2268C18.4844 10.6576 18.5731 11.0834 18.7423 11.4796C18.9115 11.8758 19.1577 12.2344 19.4667 12.5346C20.0793 13.1298 20.9015 13.4599 21.7555 13.4537C22.6096 13.4474 23.4269 13.1053 24.0307 12.5013C24.6345 11.8973 24.9764 11.0799 24.9824 10.2259C24.9884 9.3718 24.658 8.5497 24.0627 7.93728ZM22.648 9.35195C22.7712 9.4668 22.8699 9.60528 22.9383 9.75913C23.0068 9.91298 23.0435 10.079 23.0463 10.2474C23.0492 10.4158 23.0181 10.583 22.9548 10.739C22.8916 10.8951 22.7976 11.0368 22.6784 11.1558C22.5592 11.2747 22.4173 11.3684 22.2611 11.4312C22.1049 11.4941 21.9376 11.5248 21.7692 11.5216C21.6009 11.5184 21.4349 11.4813 21.2812 11.4125C21.1275 11.3437 20.9892 11.2447 20.8747 11.1213C20.6538 10.8834 20.5339 10.5691 20.5401 10.2446C20.5463 9.92003 20.6782 9.61055 20.9079 9.38128C21.1377 9.15202 21.4475 9.02084 21.7721 9.01537C22.0966 9.0099 22.4106 9.13056 22.648 9.35195ZM7.83201 18.6053C7.62862 18.7449 7.43849 18.9029 7.26401 19.0773C5.06934 21.2733 1.74801 28.9399 1.74801 28.9399C1.66906 29.1235 1.64699 29.3265 1.68464 29.5228C1.7223 29.719 1.81796 29.8994 1.95925 30.0407C2.10054 30.182 2.28097 30.2777 2.4772 30.3153C2.67344 30.353 2.87646 30.3309 3.06001 30.2519C3.06001 30.2519 10.7267 26.9306 12.9227 24.736C13.0971 24.5615 13.2551 24.3713 13.3947 24.1679C13.2335 24.071 13.0848 23.9545 12.952 23.8213L8.17868 19.048C8.04542 18.9152 7.929 18.7665 7.83201 18.6053ZM24.1347 20.6586C20.1947 24.1119 16.2307 24.4866 14.9187 24.5093L14.4173 27.0159C14.3812 27.1947 14.3947 27.3799 14.4564 27.5515C14.5181 27.7231 14.6256 27.8746 14.7672 27.9894C14.9089 28.1043 15.0793 28.1782 15.2599 28.203C15.4406 28.2279 15.6246 28.2029 15.792 28.1306L21.5747 25.652C22.2376 25.3679 22.8114 24.9098 23.2353 24.3263C23.6592 23.7428 23.9174 23.0556 23.9827 22.3373L24.1347 20.6586ZM11.3413 7.86528L9.66268 8.01728C8.94441 8.08255 8.25715 8.34079 7.67365 8.76469C7.09014 9.18859 6.6321 9.76237 6.34801 10.4253L3.86935 16.208C3.79758 16.3754 3.77291 16.5592 3.798 16.7397C3.82309 16.9201 3.897 17.0903 4.01173 17.2317C4.12647 17.3732 4.27767 17.4807 4.44902 17.5425C4.62037 17.6044 4.80536 17.6182 4.98401 17.5826L7.49201 17.0813C7.51468 15.7546 7.89334 11.7986 11.3413 7.86528Z" fill="#FF5454"/>
</svg>
