<svg width="24" height="18" viewBox="0 0 24 18" fill="none" xmlns="http://www.w3.org/2000/svg">
<path fillRule="evenodd" ="evenodd" d="M21.3904 1.1141C22.4184 1.39087 23.2289 2.20141 23.5057 3.22941C24.0197 5.10749 23.9999 9.02181 23.9999 9.02181C23.9999 9.02181 23.9999 12.9164 23.5057 14.7944C23.2289 15.8224 22.4184 16.633 21.3904 16.9097C19.5123 17.404 11.9999 17.404 11.9999 17.404C11.9999 17.404 4.50739 17.404 2.60954 16.89C1.58154 16.6132 0.771002 15.8027 0.494232 14.7747C0 12.9164 0 9.00204 0 9.00204C0 9.00204 0 5.10749 0.494232 3.22941C0.771002 2.20141 1.60131 1.3711 2.60954 1.09433C4.48762 0.600098 11.9999 0.600098 11.9999 0.600098C11.9999 0.600098 19.5123 0.600098 21.3904 1.1141ZM15.855 9.00182L9.60791 12.5998V5.40381L15.855 9.00182Z" fill="#040418"/>
</svg>
