<svg width="24" height="24" viewBox="0 0 24 24" fill="none" xmlns="http://www.w3.org/2000/svg">
<path fillRule="evenodd" clipRule="evenodd" d="M2.03702 11.2933C8.23851 8.59144 12.3738 6.81019 14.4429 5.94958C20.3506 3.49236 21.5782 3.06551 22.3783 3.05142C22.5543 3.04832 22.9478 3.09193 23.2026 3.29875C23.4178 3.47337 23.4771 3.70927 23.5054 3.87484C23.5337 4.04041 23.569 4.41758 23.541 4.71228C23.2208 8.07603 21.8356 16.2389 21.1308 20.0064C20.8326 21.6005 20.2455 22.1351 19.677 22.1874C18.4417 22.301 17.5036 21.371 16.3071 20.5866C14.4348 19.3593 13.3771 18.5953 11.5597 17.3977C9.4594 16.0136 10.8209 15.2529 12.0179 14.0097C12.3311 13.6844 17.7742 8.73353 17.8795 8.28441C17.8927 8.22824 17.9049 8.01887 17.7805 7.90831C17.6561 7.79775 17.4726 7.83556 17.3401 7.86563C17.1523 7.90825 14.1613 9.88519 8.36704 13.7965C7.51805 14.3794 6.74906 14.6635 6.06007 14.6486C5.30052 14.6322 3.83945 14.2191 2.75329 13.8661C1.42107 13.433 0.36225 13.2041 0.454449 12.4686C0.502472 12.0855 1.03 11.6938 2.03702 11.2933Z" fill="#040418"/>
</svg>
