<svg width="33" height="32" viewBox="0 0 33 32" fill="none" xmlns="http://www.w3.org/2000/svg">
<g clip-path="url(#clip0_93_1384)">
<rect x="0.9" y="0.4" width="31.2" height="31.2" rx="2.8" fill="white" stroke="#F5F5F5" stroke-width="0.8"/>
<mask id="mask0_93_1384" style="mask-type:luminance" maskUnits="userSpaceOnUse" x="0" y="0" width="33" height="32">
<rect x="0.9" y="0.4" width="31.2" height="31.2" rx="2.8" fill="white" stroke="white" stroke-width="0.8"/>
</mask>
<g mask="url(#mask0_93_1384)">
<path fill-rule="evenodd" clip-rule="evenodd" d="M0.5 11.2H32.5V0H0.5V11.2Z" fill="#04AAC8"/>
<path fill-rule="evenodd" clip-rule="evenodd" d="M0.5 31.9997H45.3V21.333H0.5V31.9997Z" fill="#23C840"/>
<path fill-rule="evenodd" clip-rule="evenodd" d="M7.9666 8.53281C8.62502 8.53281 9.23699 8.33396 9.74574 7.99304C9.68656 7.99696 9.62684 7.99896 9.56667 7.99896C8.09391 7.99896 6.9 6.80505 6.9 5.33229C6.9 3.85953 8.09391 2.66562 9.56667 2.66562C9.62626 2.66562 9.68539 2.66758 9.74401 2.67143C9.23561 2.33121 8.62427 2.13281 7.9666 2.13281C6.19929 2.13281 4.7666 3.5655 4.7666 5.33281C4.7666 7.10012 6.19929 8.53281 7.9666 8.53281ZM13.2999 7.46667C13.2999 8.05577 12.8224 8.53333 12.2333 8.53333C11.6442 8.53333 11.1666 8.05577 11.1666 7.46667C11.1666 6.87756 11.6442 6.4 12.2333 6.4C12.8224 6.4 13.2999 6.87756 13.2999 7.46667ZM16.4999 4.26615C17.089 4.26615 17.5665 3.78858 17.5665 3.19948C17.5665 2.61038 17.089 2.13281 16.4999 2.13281C15.9108 2.13281 15.4332 2.61038 15.4332 3.19948C15.4332 3.78858 15.9108 4.26615 16.4999 4.26615ZM21.8333 3.19948C21.8333 3.78858 21.3558 4.26615 20.7667 4.26615C20.1776 4.26615 19.7 3.78858 19.7 3.19948C19.7 2.61038 20.1776 2.13281 20.7667 2.13281C21.3558 2.13281 21.8333 2.61038 21.8333 3.19948ZM20.7667 8.53333C21.3558 8.53333 21.8333 8.05577 21.8333 7.46667C21.8333 6.87756 21.3558 6.4 20.7667 6.4C20.1776 6.4 19.7 6.87756 19.7 7.46667C19.7 8.05577 20.1776 8.53333 20.7667 8.53333ZM17.5665 7.46667C17.5665 8.05577 17.089 8.53333 16.4999 8.53333C15.9108 8.53333 15.4332 8.05577 15.4332 7.46667C15.4332 6.87756 15.9108 6.4 16.4999 6.4C17.089 6.4 17.5665 6.87756 17.5665 7.46667Z" fill="white"/>
</g>
</g>
<defs>
<clipPath id="clip0_93_1384">
<rect x="0.5" width="32" height="32" rx="16" fill="white"/>
</clipPath>
</defs>
</svg>
